# xmcd
#
# Track frame offsets: 
#        150
#        20666
#        44072
#        66766
#        87221
#        104428
#        123937
#        144477
#        161786
#        180140
#        199966
#        216163
#
# Disc length: 3120 seconds
#
# Revision: 0
# Processed by: cddbd v1.5.2PL0 Copyright (c) Steve Scherf et al.
# Submitted via: ExactAudioCopyFreeDBPlugin 1.0
#
DISCID=ac0c2e0c
DTITLE=Ray Charles - Ray Charles and Friends
DYEAR=1900
DGENRE=
TTITLE0=7906e90a01
TTITLE1=7906e90a02
TTITLE2=7906e90a03
TTITLE3=7906e90a04
TTITLE4=7906e90a05
TTITLE5=7906e90a06
TTITLE6=7906e90a07
TTITLE7=7906e90a08
TTITLE8=7906e90a09
TTITLE9=7906e90a10
TTITLE10=7906e90a11
TTITLE11=7906e90a12
EXTD=
EXTT0=
EXTT1=
EXTT2=
EXTT3=
EXTT4=
EXTT5=
EXTT6=
EXTT7=
EXTT8=
EXTT9=
EXTT10=
EXTT11=
PLAYORDER=
